<svg width="30" height="18" viewBox="0 0 30 18" fill="none" xmlns="http://www.w3.org/2000/svg">
<path d="M29.1723 4.18125L16.0969 0.164058C15.3844 -0.0548486 14.6157 -0.0548486 13.9037 0.164058L0.827883 4.18125C-0.275554 4.52015 -0.275554 5.97937 0.827883 6.31828L3.10741 7.01859C2.60726 7.63687 2.29976 8.39109 2.26929 9.21703C1.81788 9.47578 1.50007 9.94265 1.50007 10.5C1.50007 11.0053 1.76632 11.4305 2.14976 11.7023L0.95304 17.0873C0.848977 17.5556 1.20523 18 1.68476 18H4.31491C4.79491 18 5.15116 17.5556 5.0471 17.0873L3.85038 11.7023C4.23382 11.4305 4.50007 11.0053 4.50007 10.5C4.50007 9.95765 4.19679 9.5039 3.76601 9.24047C3.80163 8.5364 4.16163 7.9139 4.73585 7.51921L13.9032 10.3359C14.3279 10.4662 15.1426 10.6289 16.0965 10.3359L29.1723 6.31875C30.2762 5.97937 30.2762 4.52062 29.1723 4.18125ZM16.5371 11.7698C15.1998 12.1805 14.0602 11.9536 13.4626 11.7698L6.66476 9.68156L6.00007 15C6.00007 16.657 10.0294 18 15.0001 18C19.9707 18 24.0001 16.657 24.0001 15L23.3354 9.68109L16.5371 11.7698Z" fill="#396EB0"/>
</svg>
