<svg width="30" height="16" viewBox="0 0 30 16" fill="none" xmlns="http://www.w3.org/2000/svg">
<path d="M22.5034 0.5H7.50008C6.26348 0.499823 5.04602 0.805416 3.9561 1.38957C2.86617 1.97373 1.93759 2.81832 1.25303 3.84816C0.568479 4.878 0.149185 6.06112 0.0324834 7.2922C-0.0842185 8.52328 0.105292 9.76412 0.584144 10.9042C1.063 12.0444 1.81633 13.0484 2.77708 13.827C3.73783 14.6055 4.87618 15.1344 6.09078 15.3666C7.30539 15.5988 8.55856 15.5271 9.73874 15.1578C10.9189 14.7885 11.9895 14.1331 12.8551 13.25H17.1451C18.0106 14.133 19.081 14.7883 20.261 15.1576C21.4411 15.527 22.6941 15.5988 23.9086 15.3668C25.1231 15.1347 26.2614 14.606 27.2221 13.8277C28.1829 13.0494 28.9363 12.0456 29.4154 10.9058C29.8944 9.76587 30.0842 8.52522 29.9679 7.29424C29.8515 6.06327 29.4326 4.88015 28.7485 3.85021C28.0643 2.82026 27.1362 1.97544 26.0466 1.39093C24.957 0.806421 23.7398 0.500364 22.5034 0.5ZM11.6251 8.5625C11.6251 8.71168 11.5658 8.85476 11.4603 8.96025C11.3548 9.06574 11.2118 9.125 11.0626 9.125H8.62508V11.5625C8.62508 11.7117 8.56582 11.8548 8.46033 11.9602C8.35484 12.0657 8.21177 12.125 8.06258 12.125H6.93758C6.7884 12.125 6.64532 12.0657 6.53983 11.9602C6.43434 11.8548 6.37508 11.7117 6.37508 11.5625V9.125H3.93758C3.7884 9.125 3.64532 9.06574 3.53983 8.96025C3.43434 8.85476 3.37508 8.71168 3.37508 8.5625V7.4375C3.37508 7.28832 3.43434 7.14524 3.53983 7.03975C3.64532 6.93426 3.7884 6.875 3.93758 6.875H6.37508V4.4375C6.37508 4.28832 6.43434 4.14524 6.53983 4.03975C6.64532 3.93426 6.7884 3.875 6.93758 3.875H8.06258C8.21177 3.875 8.35484 3.93426 8.46033 4.03975C8.56582 4.14524 8.62508 4.28832 8.62508 4.4375V6.875H11.0626C11.2118 6.875 11.3548 6.93426 11.4603 7.03975C11.5658 7.14524 11.6251 7.28832 11.6251 7.4375V8.5625ZM21.7501 12.125C21.3792 12.125 21.0167 12.015 20.7084 11.809C20.4 11.603 20.1597 11.3101 20.0178 10.9675C19.8759 10.6249 19.8388 10.2479 19.9111 9.8842C19.9835 9.52049 20.162 9.1864 20.4243 8.92418C20.6865 8.66195 21.0206 8.48337 21.3843 8.41103C21.748 8.33868 22.125 8.37581 22.4676 8.51773C22.8102 8.65964 23.1031 8.89996 23.3091 9.20831C23.5151 9.51665 23.6251 9.87916 23.6251 10.25C23.6251 10.7473 23.4275 11.2242 23.0759 11.5758C22.7243 11.9275 22.2474 12.125 21.7501 12.125ZM24.7501 7.625C24.3792 7.625 24.0167 7.51503 23.7084 7.30901C23.4 7.10298 23.1597 6.81014 23.0178 6.46753C22.8759 6.12492 22.8388 5.74792 22.9111 5.38421C22.9835 5.02049 23.162 4.6864 23.4243 4.42417C23.6865 4.16195 24.0206 3.98337 24.3843 3.91103C24.748 3.83868 25.125 3.87581 25.4676 4.01773C25.8102 4.15964 26.1031 4.39996 26.3091 4.70831C26.5151 5.01665 26.6251 5.37916 26.6251 5.75C26.6251 6.24728 26.4275 6.72419 26.0759 7.07583C25.7243 7.42746 25.2474 7.625 24.7501 7.625Z" fill="#396EB0"/>
</svg>
