<svg width="24" height="22" viewBox="0 0 24 22" fill="none" xmlns="http://www.w3.org/2000/svg">
<path d="M13.875 0.5H22.875C23.4963 0.5 24 1.00367 24 1.625V9.125C24 9.74633 23.4963 10.25 22.875 10.25H13.875C13.2536 10.25 12.75 9.74633 12.75 9.125V1.625C12.75 1.00367 13.2536 0.5 13.875 0.5ZM10.125 0.5H1.12496C0.503634 0.5 -3.8147e-05 1.00367 -3.8147e-05 1.625V9.125C-3.8147e-05 9.74633 0.503634 10.25 1.12496 10.25H10.125C10.7463 10.25 11.25 9.74633 11.25 9.125V1.625C11.25 1.00367 10.7463 0.5 10.125 0.5ZM-3.8147e-05 12.875V20.375C-3.8147e-05 20.9963 0.503634 21.5 1.12496 21.5H10.125C10.7463 21.5 11.25 20.9963 11.25 20.375V12.875C11.25 12.2537 10.7463 11.75 10.125 11.75H1.12496C0.503634 11.75 -3.8147e-05 12.2537 -3.8147e-05 12.875ZM13.875 21.5H22.875C23.4963 21.5 24 20.9963 24 20.375V12.875C24 12.2537 23.4963 11.75 22.875 11.75H13.875C13.2536 11.75 12.75 12.2537 12.75 12.875V20.375C12.75 20.9963 13.2536 21.5 13.875 21.5Z" fill="#396EB0"/>
</svg>
