<svg width="15" height="24" viewBox="0 0 15 24" fill="none" xmlns="http://www.w3.org/2000/svg">
<g clip-path="url(#clip0_1179_11770)">
<path d="M12.7501 0H2.25009C1.0079 0 9.15527e-05 1.00781 9.15527e-05 2.25V21.75C9.15527e-05 22.9922 1.0079 24 2.25009 24H12.7501C13.9923 24 15.0001 22.9922 15.0001 21.75V2.25C15.0001 1.00781 13.9923 0 12.7501 0ZM7.50009 22.5C6.6704 22.5 6.00009 21.8297 6.00009 21C6.00009 20.1703 6.6704 19.5 7.50009 19.5C8.32978 19.5 9.00009 20.1703 9.00009 21C9.00009 21.8297 8.32978 22.5 7.50009 22.5Z" fill="#396EB0"/>
</g>
<defs>
<clipPath id="clip0_1179_11770">
<rect width="15" height="24" fill="white"/>
</clipPath>
</defs>
</svg>
