<svg width="24" height="22" viewBox="0 0 24 22" fill="none" xmlns="http://www.w3.org/2000/svg">
<path d="M21.6188 5H3.75008C3.3357 5 3.00008 4.66437 3.00008 4.25C3.00008 3.83562 3.3357 3.5 3.75008 3.5H21.7501C22.1645 3.5 22.5001 3.16438 22.5001 2.75C22.5001 1.50734 21.4927 0.5 20.2501 0.5H3.00008C1.34305 0.5 7.62939e-05 1.84297 7.62939e-05 3.5V18.5C7.62939e-05 20.157 1.34305 21.5 3.00008 21.5H21.6188C22.9323 21.5 24.0001 20.4908 24.0001 19.25V7.25C24.0001 6.00922 22.9323 5 21.6188 5ZM19.5001 14.75C18.6718 14.75 18.0001 14.0783 18.0001 13.25C18.0001 12.4217 18.6718 11.75 19.5001 11.75C20.3284 11.75 21.0001 12.4217 21.0001 13.25C21.0001 14.0783 20.3284 14.75 19.5001 14.75Z" fill="#396EB0"/>
</svg>
