<svg width="17" height="24" viewBox="0 0 17 24" fill="none" xmlns="http://www.w3.org/2000/svg">
<path d="M9.61965 1.03549C9.24746 -0.313577 7.30215 -0.376389 6.88027 1.03549C4.68793 8.43049 -3.8147e-05 10.44 -3.8147e-05 15.652C-3.8147e-05 20.2664 3.68996 24 8.24996 24C12.81 24 16.5 20.2664 16.5 15.652C16.5 10.4138 11.8223 8.46424 9.61965 1.03549ZM8.24996 21C5.35543 21 2.99996 18.6445 2.99996 15.75C2.99996 15.3356 3.33559 15 3.74996 15C4.16434 15 4.49996 15.3356 4.49996 15.75C4.49996 17.8177 6.18231 19.5 8.24996 19.5C8.66434 19.5 8.99996 19.8356 8.99996 20.25C8.99996 20.6644 8.66434 21 8.24996 21Z" fill="#396EB0"/>
</svg>
